<svg xmlns="http://www.w3.org/2000/svg" xmlns:xlink="http://www.w3.org/1999/xlink" id="layer" x="0" y="0" version="1.1" viewBox="0 0 652 652" xml:space="preserve" style="enable-background:new 0 0 652 652"><style type="text/css">.st0{fill:#3f5464}.st1{fill:#f09820}</style><path d="M603.8,286.4v1h2.5v7.1h1v-7.1h2.5v-1C609.9,286.4,603.8,286.4,603.8,286.4z M619.4,286.4l-3,4.5l-3-4.5h-1v8.1	h1v-6.1l3,4.5l0,0l3-4.5v6.1h1v-8.1C620.5,286.4,619.4,286.4,619.4,286.4z" class="st0"/><path d="M285.9,322.2L285.9,322.2c0-21.7,16.1-38.9,39.4-38.9c14.1,0,22.7,4.5,29.8,11.6l-10.6,12.1	c-5.6-5-11.6-8.6-19.2-8.6c-12.6,0-21.7,10.6-21.7,23.2l0,0c0,13.1,9.1,23.7,21.7,23.7c8.6,0,13.6-3.5,19.7-8.6l10.6,10.6	c-7.6,8.1-16.1,13.6-30.8,13.6C302.5,361.1,285.9,343.9,285.9,322.2" class="st0"/><polygon points="374.2 284.9 390.8 284.9 390.8 314.1 421.6 314.1 421.6 284.9 437.8 284.9 437.8 359.5 421.6 359.5 421.6 329.8 390.8 329.8 390.8 359.5 374.2 359.5" class="st0"/><polygon points="458 284.9 515 284.9 515 299.5 474.6 299.5 474.6 314.6 509.9 314.6 509.9 329.3 474.6 329.3 474.6 344.9 515.5 344.9 515.5 359.5 458 359.5" class="st0"/><polygon points="537.2 284.9 594.2 284.9 594.2 299.5 553.3 299.5 553.3 315.6 589.7 315.6 589.7 330.8 553.3 330.8 553.3 359.5 537.2 359.5" class="st0"/><path d="M131.5,372.2c-27.8,0-50-22.2-50-50s22.2-50,50-50c22.7,0,41.9,15.1,47.9,36.3h19.2c-6.1-31.8-33.8-55-67.1-55	c-37.8,0-68.6,30.8-68.6,68.6s30.8,68.6,68.6,68.6c33.3,0,61.1-23.7,67.6-55h-19.2C173.4,357,154.2,372.2,131.5,372.2" class="st0"/><path d="M97.7,356c8.6,8.6,20.7,14.1,33.8,14.1V350c-7.6,0-14.6-3-19.7-8.1L97.7,356z" class="st0"/><path d="M83.5,322.2c0,7.1,1.5,13.1,4,19.2l18.2-8.1c-1.5-3.5-2.5-7.1-2.5-11.1c0-15.1,12.6-27.8,27.8-27.8v-20.2	C105.2,274.3,83.5,296,83.5,322.2" class="st1"/><path d="M148.6,277.8l-7.1,18.7c6.1,2.5,10.6,6.6,14.1,12.1h21.2C172.8,294.4,162.2,282.8,148.6,277.8" class="st0"/><path d="M141.6,347.9l7.1,18.7c13.6-5,24.2-16.7,28.3-30.8h-21.7C152.2,341.4,147.6,345.9,141.6,347.9" class="st1"/><path d="M131.5,414.5c-25.2,0-48.4-10.6-65.1-27.2l-13.1,13.1c20.2,20.2,47.9,32.3,78.7,32.3	c56.5,0,103.4-42.4,110-96.9h-19.2C215.7,380.2,177.4,414.5,131.5,414.5" class="st1"/><path d="M131.5,229.9c20.7,0,39.9,7.1,55,18.2l11.1-15.1c-18.2-13.6-41.4-21.7-66.1-21.7c-46.9,0-87.3,29.3-103.4,70.6	l17.7,7.1C58.8,254.6,92.6,229.9,131.5,229.9" class="st1"/><path d="M222.8,308.6H242c-2-16.1-7.6-31.8-16.1-44.9l-16.1,10.1C216.2,283.9,220.8,295.5,222.8,308.6" class="st0"/><path d="M201.1,308.6h19.2c-5-31.8-26.7-58.5-56-69.6l-7.1,17.7C179.4,264.7,196.6,284.4,201.1,308.6" class="st1"/><path d="M131.5,251.1L131.5,251.1v-18.7c-37.8,0-70.6,23.7-83.8,57.5l17.7,6.6C75.5,269.7,101.2,251.1,131.5,251.1" class="st0"/><path d="M60.3,322.2L60.3,322.2H41.6c0,37.8,23.2,70.1,56.5,83.3l7.1-17.7C79,377.7,60.3,352,60.3,322.2" class="st1"/><path d="M131.5,393.4V412c44.9,0,82.3-32.8,88.8-76.2h-19.2C194.5,368.6,165.8,393.4,131.5,393.4" class="st0"/><path d="M30,367.1c-6.6-14.6-9.6-29.8-9.6-44.9h18.7c0,12.6,2.5,25.2,7.6,37.3L30,367.1z" class="st0"/></svg>