<svg xmlns="http://www.w3.org/2000/svg" id="figma" width="38.738" height="58.107" viewBox="0 0 38.738 58.107"><path id="Path_3" fill="#0acf83" d="M9.684,219.369a9.688,9.688,0,0,0,9.684-9.684V200H9.684a9.684,9.684,0,0,0,0,19.369Z" data-name="Path 3" transform="translate(0 -161.262)"/><path id="Path_4" fill="#a259ff" d="M0,109.684A9.688,9.688,0,0,1,9.684,100h9.684v19.369H9.684A9.688,9.688,0,0,1,0,109.684Z" data-name="Path 4" transform="translate(0 -80.631)"/><path id="Path_5" fill="#f24e1e" d="M0,9.684A9.688,9.688,0,0,1,9.684,0h9.684V19.369H9.684A9.688,9.688,0,0,1,0,9.684Z" data-name="Path 5"/><path id="Path_6" fill="#ff7262" d="M100,0h9.684a9.684,9.684,0,0,1,0,19.369H100Z" data-name="Path 6" transform="translate(-80.631)"/><path id="Path_7" fill="#1abcfe" d="M119.369,109.684A9.684,9.684,0,1,1,109.684,100,9.688,9.688,0,0,1,119.369,109.684Z" data-name="Path 7" transform="translate(-80.631 -80.631)"/></svg>